<svg xmlns="http://www.w3.org/2000/svg" viewBox="0 0 104.89 104.89"><defs><style>.cls-1{fill:#fff;}</style></defs><g id="레이어_2" data-name="레이어 2"><g id="Layer_1" data-name="Layer 1"><rect width="104.89" height="104.89"/><polygon class="cls-1" points="19.61 58.68 19.61 86.27 23.76 83.74 27.9 81.2 27.9 53.61 23.76 56.15 19.61 58.68"/><path class="cls-1" d="M85.25,80.54V57.91l-2.79-1.73L75.65,52l-3.6,2.2-5.94,3.64L61.55,60.6l-5.18,3.17h0V36.18L19.61,18.66v6.43L51.26,39.31,46.84,42h0L19.61,29.87V37l20.9,8.91L37.05,48l-17.44-7.2v7.11l10.51,4.33v27.6l3.66-2.25,3.66-2.24V54.8l3.32-2v20.5l3-1.86,3-1.86V49.21l4.42-2.63V66.9l34,19.48V80.56Zm-2.79-1.62L60.74,66.31,65.87,63l16.59,9.37Zm0-11.73-12.17-7L76,56.52l6.42,3.78Z"/><polygon class="cls-1" points="85.25 46.1 85.25 28.37 85.25 18.5 83.87 19.35 82.49 20.2 82.49 29.46 82.49 47.79 83.87 46.94 85.25 46.1"/><polygon class="cls-1" points="66.11 35.95 66.11 30.22 63.83 31.61 61.55 33.01 61.55 37.76 61.55 60.6 61.55 60.6 66.11 57.81 66.11 35.95"/><polygon class="cls-1" points="75.65 32.17 75.65 24.38 73.85 25.48 72.06 26.58 72.06 33.6 72.06 54.17 75.65 51.97 75.65 32.17"/></g></g></svg>