<svg xmlns="http://www.w3.org/2000/svg" viewBox="0 0 27.59 28.53"><defs><style>.cls-1{fill:#fff;}</style></defs><g id="레이어_2" data-name="레이어 2"><g id="레이어_1-2" data-name="레이어 1"><polygon class="cls-1" points="0 16.89 0 28.48 1.74 27.42 3.48 26.35 3.48 14.75 1.74 15.82 0 16.89"/><path class="cls-1" d="M27.58,26.07V16.56l-1.17-.72-2.86-1.77L22,15l-2.5,1.53-1.91,1.17L15.45,19h0V7.43L0,.06V2.77l13.3,6L11.44,9.88h0L0,4.78v3l8.78,3.74-1.45.89L0,9.38v3l4.41,1.82v11.6L6,24.84l1.54-.94V15.26l1.4-.83V23l1.27-.78,1.28-.78V12.9l1.86-1.1v8.54l14.29,8.19V26.08Zm-1.17-.68-9.12-5.3,2.15-1.37,7,3.93Zm0-4.93L21.3,17.53,23.71,16l2.7,1.59Z"/><polygon class="cls-1" points="27.59 11.6 27.59 4.15 27.59 0 27 0.35 26.42 0.71 26.42 4.61 26.42 12.31 27 11.95 27.59 11.6"/><polygon class="cls-1" points="19.54 7.33 19.54 4.92 18.58 5.51 17.63 6.1 17.63 8.09 17.63 17.69 17.63 17.69 19.54 16.52 19.54 7.33"/><polygon class="cls-1" points="23.55 5.75 23.55 2.47 22.79 2.93 22.04 3.4 22.04 6.34 22.04 14.99 23.55 14.07 23.55 5.75"/></g></g></svg>